<svg viewBox="0 0 1 1" xmlns="http://www.w3.org/2000/svg" width="200" height="200">
    <line style="stroke: black; stroke-width: 0.005;" x1="0.5" y1="0.95" x2="0.5" y2="0.5"></line>
    <line style="stroke: black; stroke-width: 0.005;" x1="0.5" y1="0.909090909090909" x2="0.5354283119729998" y2="0.47954545454545455"></line>
    <line style="stroke: black; stroke-width: 0.005;" x1="0.5" y1="0.8681818181818182" x2="0.5708566239459996" y2="0.4590909090909091"></line>
    <line style="stroke: black; stroke-width: 0.005;" x1="0.5" y1="0.8272727272727273" x2="0.6062849359189993" y2="0.43863636363636366"></line>
    <line style="stroke: black; stroke-width: 0.005;" x1="0.5" y1="0.7863636363636364" x2="0.6417132478919991" y2="0.4181818181818182"></line>
    <line style="stroke: black; stroke-width: 0.005;" x1="0.5" y1="0.7454545454545454" x2="0.6771415598649988" y2="0.3977272727272728"></line>
    <line style="stroke: black; stroke-width: 0.005;" x1="0.5" y1="0.7045454545454546" x2="0.7125698718379987" y2="0.3772727272727273"></line>
    <line style="stroke: black; stroke-width: 0.005;" x1="0.5" y1="0.6636363636363636" x2="0.7479981838109984" y2="0.3568181818181819"></line>
    <line style="stroke: black; stroke-width: 0.005;" x1="0.5" y1="0.6227272727272727" x2="0.7834264957839981" y2="0.3363636363636364"></line>
    <line style="stroke: black; stroke-width: 0.005;" x1="0.5" y1="0.5818181818181818" x2="0.8188548077569979" y2="0.31590909090909103"></line>
    <line style="stroke: black; stroke-width: 0.005;" x1="0.5" y1="0.5409090909090909" x2="0.8542831197299976" y2="0.2954545454545456"></line>
    <line style="stroke: black; stroke-width: 0.005;" x1="0.5" y1="0.5" x2="0.8897114317029975" y2="0.27500000000000013"></line>
    <line style="stroke: black; stroke-width: 0.005;" x1="0.8897114317029975" y1="0.27500000000000013" x2="0.5" y2="0.5"></line>
    <line style="stroke: black; stroke-width: 0.005;" x1="0.8542831197299976" y1="0.2954545454545456" x2="0.4645716880270002" y2="0.4795454545454545"></line>
    <line style="stroke: black; stroke-width: 0.005;" x1="0.8188548077569979" y1="0.31590909090909103" x2="0.42914337605400044" y2="0.45909090909090905"></line>
    <line style="stroke: black; stroke-width: 0.005;" x1="0.7834264957839981" y1="0.3363636363636364" x2="0.39371506408100077" y2="0.4386363636363636"></line>
    <line style="stroke: black; stroke-width: 0.005;" x1="0.7479981838109984" y1="0.3568181818181819" x2="0.358286752108001" y2="0.4181818181818181"></line>
    <line style="stroke: black; stroke-width: 0.005;" x1="0.7125698718379986" y1="0.3772727272727273" x2="0.3228584401350012" y2="0.3977272727272726"></line>
    <line style="stroke: black; stroke-width: 0.005;" x1="0.6771415598649988" y1="0.3977272727272728" x2="0.2874301281620015" y2="0.3772727272727272"></line>
    <line style="stroke: black; stroke-width: 0.005;" x1="0.6417132478919991" y1="0.4181818181818182" x2="0.2520018161890017" y2="0.3568181818181817"></line>
    <line style="stroke: black; stroke-width: 0.005;" x1="0.6062849359189993" y1="0.43863636363636366" x2="0.21657350421600194" y2="0.3363636363636362"></line>
    <line style="stroke: black; stroke-width: 0.005;" x1="0.5708566239459996" y1="0.4590909090909091" x2="0.18114519224300218" y2="0.3159090909090907"></line>
    <line style="stroke: black; stroke-width: 0.005;" x1="0.5354283119729998" y1="0.47954545454545455" x2="0.14571688027000246" y2="0.2954545454545453"></line>
    <line style="stroke: black; stroke-width: 0.005;" x1="0.5" y1="0.5" x2="0.11028856829700268" y2="0.2749999999999998"></line>
    <line style="stroke: black; stroke-width: 0.005;" x1="0.11028856829700268" y1="0.2749999999999998" x2="0.5" y2="0.5"></line>
    <line style="stroke: black; stroke-width: 0.005;" x1="0.14571688027000243" y1="0.29545454545454525" x2="0.5" y2="0.5409090909090909"></line>
    <line style="stroke: black; stroke-width: 0.005;" x1="0.18114519224300218" y1="0.3159090909090907" x2="0.5" y2="0.5818181818181818"></line>
    <line style="stroke: black; stroke-width: 0.005;" x1="0.21657350421600194" y1="0.3363636363636362" x2="0.5" y2="0.6227272727272727"></line>
    <line style="stroke: black; stroke-width: 0.005;" x1="0.2520018161890017" y1="0.3568181818181817" x2="0.5" y2="0.6636363636363636"></line>
    <line style="stroke: black; stroke-width: 0.005;" x1="0.2874301281620014" y1="0.37727272727272715" x2="0.5" y2="0.7045454545454546"></line>
    <line style="stroke: black; stroke-width: 0.005;" x1="0.3228584401350012" y1="0.3977272727272726" x2="0.5" y2="0.7454545454545454"></line>
    <line style="stroke: black; stroke-width: 0.005;" x1="0.358286752108001" y1="0.4181818181818181" x2="0.5" y2="0.7863636363636364"></line>
    <line style="stroke: black; stroke-width: 0.005;" x1="0.39371506408100077" y1="0.4386363636363636" x2="0.5" y2="0.8272727272727273"></line>
    <line style="stroke: black; stroke-width: 0.005;" x1="0.4291433760540005" y1="0.45909090909090905" x2="0.5" y2="0.8681818181818182"></line>
    <line style="stroke: black; stroke-width: 0.005;" x1="0.4645716880270002" y1="0.4795454545454545" x2="0.5" y2="0.909090909090909"></line>
    <line style="stroke: black; stroke-width: 0.005;" x1="0.5" y1="0.5" x2="0.5" y2="0.95"></line>
</svg>
